<svg xmlns="http://www.w3.org/2000/svg" viewBox="0 0 200 200"><rect x="45" y="30" width="110" height="130" rx="20" fill="#e0e0f0"/><rect x="50" y="35" width="100" height="80" rx="10" fill="#1a1a2a"/><rect x="55" y="40" width="90" height="70" rx="6" fill="#20c8e0"/><rect x="65" y="50" width="8" height="8" fill="#1a1a2a"/><rect x="85" y="50" width="8" height="8" fill="#1a1a2a"/><rect x="105" y="50" width="8" height="8" fill="#1a1a2a"/><rect x="125" y="50" width="8" height="8" fill="#1a1a2a"/><rect x="75" y="65" width="48" height="30" rx="4" fill="#18a8c0"/><rect x="80" y="70" width="6" height="6" fill="white" opacity="0.3"/><rect x="90" y="70" width="6" height="6" fill="white" opacity="0.3"/><rect x="100" y="70" width="6" height="6" fill="white" opacity="0.3"/><rect x="110" y="70" width="6" height="6" fill="white" opacity="0.3"/><rect x="80" y="80" width="6" height="6" fill="white" opacity="0.3"/><rect x="100" y="80" width="6" height="6" fill="white" opacity="0.3"/><rect x="110" y="80" width="6" height="6" fill="white" opacity="0.3"/><rect x="85" y="115" width="8" height="8" fill="#888"/><rect x="105" y="115" width="8" height="8" fill="#888"/><rect x="65" y="120" width="12" height="30" rx="4" fill="#c0c0d0"/><rect x="123" y="120" width="12" height="30" rx="4" fill="#c0c0d0"/><rect x="75" y="125" width="6" height="6" fill="#a0a0b0"/><rect x="80" y="125" width="6" height="6" fill="#a0a0b0"/><rect x="128" y="125" width="6" height="6" fill="#a0a0b0"/><rect x="133" y="125" width="6" height="6" fill="#a0a0b0"/></svg>