<svg xmlns="http://www.w3.org/2000/svg" viewBox="0 0 200 200"><rect x="45" y="70" width="110" height="100" rx="30" fill="#5aaa5a"/><rect x="45" y="70" width="55" height="100" rx="30" fill="#4a9a4a"/><circle cx="75" cy="90" r="5" fill="white"/><circle cx="75" cy="90" r="3" fill="#1a3a1a"/><circle cx="120" cy="90" r="5" fill="white"/><circle cx="120" cy="90" r="3" fill="#1a3a1a"/><circle cx="85" cy="95" r="4" fill="#3a8a3a"/><circle cx="110" cy="95" r="4" fill="#3a8a3a"/><rect x="55" y="60" width="90" height="30" rx="15" fill="white"/><rect x="60" y="55" width="80" height="8" rx="4" fill="white"/><rect x="50" y="65" width="10" height="20" rx="5" fill="#eee"/><rect x="140" y="65" width="10" height="20" rx="5" fill="#eee"/><rect x="65" y="58" width="12" height="6" rx="3" fill="#ccc"/><rect x="95" y="58" width="12" height="6" rx="3" fill="#ccc"/><rect x="125" y="58" width="12" height="6" rx="3" fill="#ccc"/><rect x="80" y="58" width="10" height="6" rx="3" fill="#ccc"/><rect x="110" y="58" width="10" height="6" rx="3" fill="#ccc"/><line x1="60" y1="150" x2="45" y2="170" stroke="#5aaa5a" stroke-width="4" stroke-linecap="round"/><line x1="140" y1="150" x2="155" y2="170" stroke="#5aaa5a" stroke-width="4" stroke-linecap="round"/></svg>