<svg xmlns="http://www.w3.org/2000/svg" viewBox="0 0 200 200"><circle cx="100" cy="105" r="70" fill="#d4722a"/><polygon points="100,20 60,60 140,60" fill="#d4722a"/><polygon points="100,15 55,55 145,55" fill="#e8883a"/><circle cx="82" cy="80" r="5" fill="#1a1a1a"/><circle cx="118" cy="80" r="5" fill="#1a1a1a"/><ellipse cx="100" cy="95" rx="14" ry="9" fill="#2a1a0a"/><circle cx="100" cy="90" r="5" fill="#1a1a1a"/><circle cx="82" cy="80" r="14" stroke="#d44040" stroke-width="3" fill="none"/><circle cx="118" cy="80" r="14" stroke="#d44040" stroke-width="3" fill="none"/><line x1="96" y1="80" x2="104" y2="80" stroke="#d44040" stroke-width="2"/><rect x="72" y="130" width="56" height="35" rx="3" fill="#4a7ad4"/><rect x="68" y="132" width="64" height="6" rx="2" fill="#5a8ae4"/><line x1="80" y1="135" x2="80" y2="160" stroke="#3a6ac4" stroke-width="1"/><line x1="90" y1="135" x2="90" y2="160" stroke="#3a6ac4" stroke-width="1"/><line x1="100" y1="135" x2="100" y2="160" stroke="#3a6ac4" stroke-width="1"/><line x1="110" y1="135" x2="110" y2="160" stroke="#3a6ac4" stroke-width="1"/><line x1="120" y1="135" x2="120" y2="160" stroke="#3a6ac4" stroke-width="1"/></svg>